<?xml version="1.0" encoding="UTF-8" standalone="no"?>
<!-- Created with Inkscape (http://www.inkscape.org/) -->

<svg
   width="237.16249"
   height="44"
   viewBox="0 0 62.749242 11.641667"
   version="1.1"
   id="svg5"
   inkscape:version="1.2.2 (732a01da63, 2022-12-09)"
   sodipodi:docname="logo.svg"
   xml:space="preserve"
   inkscape:export-filename="svglogo"
   inkscape:export-xdpi="96"
   inkscape:export-ydpi="96"
   xmlns:inkscape="http://www.inkscape.org/namespaces/inkscape"
   xmlns:sodipodi="http://sodipodi.sourceforge.net/DTD/sodipodi-0.dtd"
   xmlns="http://www.w3.org/2000/svg"
   xmlns:svg="http://www.w3.org/2000/svg"><sodipodi:namedview
     id="namedview7"
     pagecolor="#ffffff"
     bordercolor="#000000"
     borderopacity="0.25"
     inkscape:showpageshadow="2"
     inkscape:pageopacity="0.0"
     inkscape:pagecheckerboard="0"
     inkscape:deskcolor="#d1d1d1"
     inkscape:document-units="mm"
     showgrid="false"
     inkscape:zoom="1.7684262"
     inkscape:cx="114.79133"
     inkscape:cy="31.1011"
     inkscape:window-width="1366"
     inkscape:window-height="705"
     inkscape:window-x="-8"
     inkscape:window-y="-8"
     inkscape:window-maximized="1"
     inkscape:current-layer="layer3"
     showguides="false" /><defs
     id="defs2" /><g
     inkscape:groupmode="layer"
     id="layer2"
     inkscape:label="Ninja Face"
     transform="translate(-0.59739341,-0.41146309)"><path
       style="fill:#000000;stroke-width:0.0273447"
       d="M 5.5979896,12.02733 C 4.3550755,11.887592 3.1496284,11.302584 2.2492168,10.402171 0.74326903,8.8962341 0.21270587,6.6750103 0.88329413,4.6836673 1.1807435,3.8003774 1.6087197,3.1090424 2.260542,2.4589623 3.3327553,1.3896296 4.7080031,0.81883588 6.2122292,0.81883588 c 1.3419235,0 2.616135,0.46154982 3.6217061,1.31186772 l 0.2299577,0.1944513 0.05902,-0.1857565 c 0.03243,-0.102166 0.09297,-0.2534398 0.134477,-0.3361498 0.240556,-0.4793699 0.823163,-0.99625445 1.44498,-1.28198644 l 0.238948,-0.10979907 0.06562,0.0875217 c 0.216719,0.28885981 0.393264,0.63590451 0.517468,1.01719261 0.186378,0.5721523 0.183174,1.1323386 -0.0086,1.5666946 -0.03003,0.067913 -0.04907,0.1289678 -0.04237,0.1357112 0.0067,0.0067 0.107006,0.028696 0.222783,0.048878 0.722872,0.1255238 1.46056,0.8293703 1.851864,1.7668853 l 0.0418,0.1000617 -0.232435,0.1546792 C 13.550402,5.826174 12.58707,5.995593 11.947875,5.7128453 c -0.06791,-0.030035 -0.127945,-0.050026 -0.133522,-0.044478 -0.0057,0.00574 9.57e-4,0.1810695 0.01483,0.3899928 0.198011,3.0195171 -2.0188057,5.6492339 -5.0333603,5.9708539 -0.3060007,0.03262 -0.8988524,0.03176 -1.1974018,-0.0019 z M 6.9925601,11.172861 C 8.8877259,10.850188 10.370009,9.4961068 10.873388,7.6276479 11.06453,6.9181484 11.064185,5.9936899 10.87245,5.2381434 10.48592,3.7147591 9.3290647,2.4512527 7.8265508,1.911469 6.4638707,1.4219122 4.8823578,1.5961234 3.676089,2.3686666 2.4639749,3.1449502 1.6868675,4.3357424 1.4664755,5.7545404 1.4213277,6.0454281 1.4210407,6.8178476 1.465959,7.1081039 1.6239666,8.1280041 2.0623604,9.021194 2.7634043,9.7515648 c 0.7420796,0.7731172 1.7553128,1.2991102 2.7525062,1.4288622 0.1278391,0.01664 0.2693468,0.0352 0.3144659,0.04132 0.1641103,0.02209 0.9356211,-0.01033 1.1621454,-0.04888 z M 3.9166063,8.3646093 C 3.1631058,8.2357466 2.5581923,7.7065609 2.3240263,6.9713788 2.2600351,6.7705763 2.249896,6.6924381 2.2495133,6.397141 2.249102,6.1153402 2.2602264,6.0193246 2.3126437,5.85025 2.4934071,5.2678242 2.8576408,4.8445063 3.3967083,4.5903108 3.8078593,4.3964239 3.7827028,4.3980213 6.2815674,4.4068117 l 2.2285909,0.00765 0.2096408,0.071548 c 0.3396224,0.1159399 0.5592396,0.2540807 0.8165052,0.5135753 0.395953,0.3993858 0.5769357,0.8377308 0.5769357,1.397334 0,0.7658481 -0.4110177,1.4356138 -1.0835472,1.7656709 C 8.5656748,8.3903302 8.7307512,8.3772354 6.2542205,8.3827832 5.0435315,8.3856532 3.9915879,8.3770432 3.916568,8.3644182 Z M 8.3187766,7.545808 C 8.6458026,7.4923384 8.9711537,7.2691821 9.1385162,6.9836031 9.5267483,6.3211358 9.1680726,5.456211 8.4248845,5.2626303 8.1891488,5.2012217 4.1841069,5.200839 3.9485349,5.262219 3.7180707,5.3222886 3.5818621,5.4009337 3.4098987,5.5733945 2.9498972,6.0346959 2.9463964,6.7423877 3.4022465,7.2098873 3.5589247,7.3707265 3.818448,7.5086471 4.0319913,7.5445358 c 0.1924808,0.03233 4.0900863,0.033478 4.2872349,9.565e-4 z M 4.6665667,6.7633067 C 4.3140695,6.5598738 4.015807,6.3837976 4.0037644,6.3720228 c -0.015783,-0.0154 0.3063547,-0.6176737 0.3788302,-0.7083136 0.00957,-0.011765 1.3235296,0.7432551 1.3242183,0.7607786 2.87e-4,0.00765 -0.089435,0.1700504 -0.1994059,0.3611824 L 5.3074655,7.1331743 Z m 2.2746856,0.030609 C 6.8341123,6.6059208 6.7464557,6.4424895 6.7464557,6.4307434 c 0,-0.022 1.2237646,-0.736062 1.2858333,-0.7503046 0.019035,-0.00478 0.09527,0.096647 0.1693903,0.2244859 0.07413,0.1278391 0.164513,0.2836085 0.2008322,0.3461458 l 0.066,0.113721 L 7.8877492,6.698799 C 7.5683285,6.8824989 7.2685165,7.0559544 7.2214939,7.0842579 l -0.085513,0.051461 z M 13.21347,4.9372888 c 0.326978,-0.1065086 0.320741,-0.092591 0.140589,-0.3128302 -0.472301,-0.5772988 -0.985952,-0.70861 -1.708624,-0.436805 l -0.173455,0.065235 0.109407,0.1384085 c 0.258183,0.3266233 0.546795,0.5426249 0.814966,0.6098971 0.182628,0.045817 0.574304,0.015209 0.817117,-0.063896 z M 11.47769,3.1790502 c 0.287292,-0.3069667 0.408837,-0.666714 0.354591,-1.049504 -0.02611,-0.1841112 -0.141841,-0.561401 -0.185688,-0.605248 -0.03176,-0.031756 -0.249949,0.140953 -0.437399,0.34627 -0.245472,0.2688589 -0.336715,0.4958219 -0.335691,0.835033 7.27e-4,0.2290962 0.05586,0.4906951 0.151589,0.7189016 l 0.04352,0.1036486 0.125409,-0.090009 c 0.06897,-0.049452 0.196643,-0.1660995 0.283706,-0.2591308 z"
       id="path183" /></g><g
     inkscape:groupmode="layer"
     id="layer3"
     inkscape:label="Latter"
     transform="translate(-0.59739341,-0.41146309)"><text
       xml:space="preserve"
       style="font-style:normal;font-variant:normal;font-weight:normal;font-stretch:normal;font-size:10.5833px;font-family:'Gang of Three';-inkscape-font-specification:'Gang of Three';opacity:1;fill:#000000;stroke-width:17.783;stroke-dasharray:none;paint-order:stroke fill markers"
       x="14.807118"
       y="10.206909"
       id="text320"><tspan
         sodipodi:role="line"
         id="tspan318"
         style="font-style:normal;font-variant:normal;font-weight:normal;font-stretch:normal;font-family:'Gang of Three';-inkscape-font-specification:'Gang of Three';fill:#000000;stroke-width:17.783;stroke-dasharray:none"
         x="14.807118"
         y="10.206909">TOONSERA</tspan></text></g></svg>
